<?xml version="1.0" standalone="no"?>
<!DOCTYPE svg PUBLIC "-//W3C//DTD SVG 20010904//EN"
 "http://www.w3.org/TR/2001/REC-SVG-20010904/DTD/svg10.dtd">
<svg version="1.0" xmlns="http://www.w3.org/2000/svg"
 width="376.000000pt" height="376.000000pt" viewBox="0 0 376.000000 376.000000"
 preserveAspectRatio="xMidYMid meet">
<metadata>
Created by potrace 1.14, written by Peter Selinger 2001-2017
</metadata>
<g transform="translate(0.000000,376.000000) scale(0.100000,-0.100000)"
fill="#000000" stroke="none">
<path d="M1487 2885 c-26 -6 -49 -10 -52 -7 -3 3 -5 0 -5 -6 0 -7 -7 -12 -16
-12 -31 0 -125 -62 -183 -121 -103 -104 -152 -224 -152 -374 0 -152 52 -279
156 -381 59 -58 143 -114 171 -114 8 0 14 -5 14 -12 0 -6 2 -9 6 -6 3 3 26 -1
52 -9 100 -31 272 -13 374 38 20 10 39 15 43 10 3 -5 41 -21 85 -36 155 -52
325 -30 462 58 71 45 122 99 168 177 78 132 94 274 50 440 -17 66 -93 183
-153 235 -158 139 -410 175 -587 85 -39 -20 -40 -20 -77 -1 -95 47 -249 63
-356 36z"/>
<path d="M1744 1588 c-5 -8 -9 -327 -5 -374 1 -7 19 -14 41 -16 l40 -4 1 81
c1 121 -2 309 -5 312 -8 9 -67 9 -72 1z"/>
<path d="M719 1585 c-1 -3 -1 -14 -1 -25 0 -44 2 -46 40 -44 20 1 39 3 42 3 3
1 6 17 6 36 0 35 -1 35 -43 35 -24 0 -43 -2 -44 -5z"/>
<path d="M425 1566 c-72 -33 -109 -95 -110 -183 0 -52 4 -67 30 -104 43 -61
103 -89 180 -83 73 5 140 45 125 73 -21 40 -37 44 -75 22 -43 -25 -75 -27
-115 -6 -80 42 -76 171 6 210 30 14 37 14 76 0 24 -9 50 -19 58 -21 9 -3 24 7
37 24 l21 28 -36 24 c-43 30 -149 39 -197 16z"/>
<path d="M2449 1556 c0 -12 -1 -95 -2 -186 l0 -165 41 -3 42 -3 0 54 0 54 65
5 c36 3 76 13 90 22 80 53 80 170 -1 222 -19 13 -51 17 -129 19 -100 2 -105 1
-106 -19z m189 -72 c50 -35 13 -95 -60 -97 l-43 -2 -3 58 -3 57 43 0 c24 0 54
-7 66 -16z"/>
<path d="M2820 1573 c-13 -3 -15 -31 -15 -188 l0 -185 25 -1 c34 -1 221 -1
243 0 13 1 17 10 17 39 l0 37 -100 -1 -100 -1 0 38 0 39 89 0 88 0 -1 38 -2
37 -87 -1 -87 0 0 38 0 38 100 0 100 0 0 38 0 37 -127 0 c-71 1 -135 -1 -143
-2z"/>
<path d="M3138 1555 c-8 -46 1 -55 58 -55 l54 0 0 -149 0 -149 29 -4 c55 -8
57 -2 57 156 l-1 146 57 0 58 0 0 38 0 37 -154 0 c-147 0 -155 -1 -158 -20z"/>
<path d="M1195 1488 c-158 -34 -149 -265 12 -294 36 -7 107 13 127 35 15 16
14 20 -9 41 -24 23 -27 23 -53 9 -29 -16 -35 -17 -69 -6 -22 8 -32 25 -40 69
-9 56 66 98 113 64 17 -13 22 -12 46 11 l27 26 -21 19 c-12 10 -33 21 -47 24
-14 3 -30 7 -36 8 -5 2 -28 -1 -50 -6z"/>
<path d="M2365 1492 c-11 -2 -30 -13 -42 -25 l-23 -20 0 22 c0 20 -4 22 -42
19 l-43 -3 0 -142 c-1 -79 2 -143 5 -144 3 0 22 -1 43 -2 l37 -2 0 73 c0 97
24 141 73 133 12 -2 19 24 15 61 -2 27 -7 33 -23 30z"/>
<path d="M719 1480 c0 -5 0 -39 0 -75 0 -216 -2 -202 31 -207 51 -8 53 -1 54
151 l1 141 -42 0 c-24 0 -43 -4 -44 -10z"/>
<path d="M879 1473 c0 -10 -1 -75 -2 -145 l-2 -126 38 -4 c21 -2 41 0 44 5 2
4 5 39 5 77 0 78 13 104 60 123 26 11 31 19 33 50 3 35 1 37 -26 37 -16 0 -37
-9 -49 -22 l-20 -22 0 22 c0 19 -6 22 -40 22 -31 0 -40 -4 -41 -17z"/>
<path d="M1399 1483 c-5 -46 1 -214 10 -235 20 -52 93 -68 147 -33 20 13 24
13 24 1 0 -17 27 -24 60 -16 l25 6 1 129 c0 72 -2 136 -4 143 -2 7 -21 12 -43
12 l-39 0 0 -94 c0 -99 -11 -126 -48 -126 -40 1 -47 16 -50 120 l-4 100 -39 0
c-21 0 -39 -3 -40 -7z"/>
<path d="M1933 1479 c-30 -9 -31 -11 -21 -40 10 -30 12 -31 54 -24 53 8 81 0
94 -26 10 -18 8 -19 -36 -15 -91 7 -144 -25 -144 -87 0 -16 5 -37 10 -48 23
-41 98 -57 148 -30 24 13 33 14 29 3 -3 -9 6 -12 46 -12 l33 0 1 88 c2 115 -9
158 -50 182 -35 22 -107 25 -164 9z m126 -163 c17 -11 -1 -47 -28 -57 -45 -18
-86 13 -63 47 12 20 66 25 91 10z"/>
<path d="M363 1068 c-39 -28 -53 -57 -53 -110 0 -76 87 -128 162 -97 28 11 35
32 19 57 -6 10 -10 10 -21 -3 -17 -21 -63 -19 -84 4 -43 47 -5 130 54 116 50
-12 55 -10 56 13 3 45 -81 57 -133 20z"/>
<path d="M594 1075 c-38 -20 -64 -63 -64 -109 0 -27 8 -46 34 -73 29 -32 40
-37 82 -39 51 -2 94 19 114 55 56 106 -57 220 -166 166z m104 -55 c28 -26 28
-67 0 -97 -48 -51 -116 -10 -109 65 2 21 40 52 64 52 13 0 33 -9 45 -20z"/>
<path d="M828 1078 c-4 -11 -3 -196 1 -220 0 -5 12 -8 26 -8 24 0 25 3 25 58
l0 57 54 -59 c30 -32 58 -56 63 -53 6 4 10 194 4 230 0 4 -12 7 -26 7 -24 0
-25 -3 -25 -57 l0 -58 -54 58 c-56 61 -62 64 -68 45z"/>
<path d="M1047 1083 c-10 -21 0 -38 26 -41 30 -4 29 0 29 -114 l-1 -78 30 0
29 0 0 95 c0 94 0 95 24 95 29 0 39 12 30 34 -5 13 -22 16 -84 16 -44 0 -81
-3 -83 -7z"/>
<path d="M1249 1083 c-1 -13 -1 -166 0 -201 1 -30 4 -33 29 -30 25 3 27 6 26
51 0 26 1 47 2 47 1 0 16 -22 33 -50 26 -42 36 -50 61 -50 16 0 30 2 30 5 0 3
-12 23 -26 45 l-26 39 21 27 c16 21 20 36 16 58 -10 49 -38 66 -106 66 -32 0
-59 -3 -60 -7z m107 -58 c8 -19 -14 -47 -35 -43 -9 2 -16 15 -16 31 -2 22 2
27 22 27 13 0 26 -7 29 -15z"/>
<path d="M1520 1079 c-34 -12 -70 -68 -70 -107 0 -130 186 -167 236 -47 41
100 -59 194 -166 154z m86 -47 c21 -14 36 -54 29 -80 -19 -78 -129 -62 -127
19 1 51 59 87 98 61z"/>
<path d="M1755 973 l1 -118 67 -3 c66 -3 67 -2 67 23 0 23 -4 25 -40 25 l-41
0 2 53 c3 129 2 137 -29 137 l-28 0 1 -117z"/>
<path d="M1929 1068 c-1 -25 -1 -173 0 -200 1 -15 11 -18 70 -18 67 0 68 0 63
25 -4 22 -10 25 -43 25 -32 0 -39 3 -39 20 0 16 7 20 30 20 25 0 30 4 30 25 0
21 -5 25 -31 25 -26 0 -30 3 -27 23 2 17 11 23 38 25 37 4 51 17 43 39 -4 9
-25 13 -69 13 -59 0 -64 -2 -65 -22z"/>
<path d="M2098 1078 c-4 -11 -3 -142 1 -171 1 -4 13 -19 27 -32 29 -27 63 -32
97 -13 46 24 50 36 51 131 l1 92 -27 3 -27 3 -3 -87 c-2 -68 -7 -89 -20 -97
-12 -8 -21 -7 -32 2 -12 10 -16 33 -16 97 0 82 -1 84 -24 84 -13 0 -26 -6 -28
-12z"/>
<path d="M2339 1088 c0 -2 -1 -56 -2 -121 l-2 -118 30 3 c28 3 30 5 28 46 0
23 2 42 6 42 3 0 18 -20 33 -45 23 -37 33 -45 58 -45 16 0 30 2 30 5 0 3 -12
23 -26 44 l-26 40 22 29 c26 36 21 83 -13 107 -17 12 -135 23 -138 13z m107
-63 c8 -20 -13 -45 -37 -45 -14 0 -17 6 -15 28 5 34 3 32 26 32 11 0 23 -7 26
-15z"/>
<path d="M2572 1070 c-12 -12 -22 -32 -22 -46 0 -24 12 -38 69 -82 14 -11 21
-24 17 -30 -10 -17 -41 -15 -56 3 -19 23 -30 18 -30 -15 0 -24 6 -33 27 -41
41 -16 84 -6 107 24 27 36 14 74 -37 106 -39 25 -49 51 -20 51 9 0 24 -7 34
-16 17 -15 19 -14 25 11 5 21 2 31 -11 42 -28 19 -78 16 -103 -7z"/>
<path d="M2883 970 l-51 -120 30 0 c21 0 31 6 35 20 4 16 14 20 43 20 29 0 39
-4 43 -20 4 -14 14 -20 36 -20 l30 0 -30 73 c-54 128 -72 167 -79 167 -4 0
-29 -54 -57 -120z m67 -20 c0 -5 -4 -10 -10 -10 -5 0 -10 5 -10 10 0 6 5 10
10 10 6 0 10 -4 10 -10z"/>
<path d="M3079 1073 c-1 -23 -1 -171 0 -200 1 -18 7 -23 29 -23 26 0 27 2 24
40 -4 37 -2 40 21 40 69 0 111 57 85 115 -14 31 -49 45 -108 45 -41 0 -50 -3
-51 -17z m106 -63 c0 -20 -6 -26 -27 -28 -24 -3 -28 0 -28 21 0 30 9 39 35 35
14 -2 20 -10 20 -28z"/>
<path d="M3299 1073 c0 -10 -2 -64 -2 -120 l-2 -103 28 0 c28 0 30 4 29 53 -1
22 4 27 23 27 81 0 120 77 66 130 -26 26 -37 30 -85 30 -46 0 -56 -3 -57 -17z
m106 -63 c0 -20 -6 -26 -28 -28 -25 -3 -27 -1 -25 28 2 27 6 31 28 28 19 -2
25 -9 25 -28z"/>
</g>
</svg>
